# xmcd CD database file
#
# Track frame offsets:
#	182
#	11175
#	24277
#	33697
#	59337
#	72032
#	85232
#	99825
#	112550
#	126167
#
# Disc length: 1850 seconds
#
# Revision: 0
# Processed by: cddbd v1.5.1PL0 Copyright (c) Steve Scherf et al.
# Submitted via: CDex 1.60beta1
#
DISCID=7307380a
DTITLE=Duke Ellington - Perdido And Other Hits
DYEAR=0
DGENRE=Jazz
TTITLE0=Perdido
TTITLE1=Hey, Baby
TTITLE2=Tip Toe Topic
TTITLE3=One O'Clock Jump
TTITLE4=Come Rain Or Come Shine
TTITLE5=Suddenly It Jumped
TTITLE6=Fickle Fling
TTITLE7=Pretty Woman
TTITLE8=Nine Twenty Special
TTITLE9=Rockabye River
EXTD=YEAR: 0
EXTT0=
EXTT1=
EXTT2=
EXTT3=
EXTT4=
EXTT5=
EXTT6=
EXTT7=
EXTT8=
EXTT9=
PLAYORDER=
